<svg width="110" height="37" viewBox="0 0 110 37" fill="none" xmlns="http://www.w3.org/2000/svg">
<path fill-rule="evenodd" clip-rule="evenodd" d="M55.8467 0.489091C55.536 0.862545 56.4003 3.69673 59.5007 12.4698C62.023 19.6069 63.7739 24.0429 64.1222 24.176C64.4304 24.2938 64.8892 24.1796 65.1416 23.9225C65.3943 23.6651 67.3477 18.5095 69.4823 12.4651C71.6169 6.42109 73.3081 1.18473 73.2402 0.828727C73.1677 0.446545 72.7326 0.137091 72.1775 0.0723636C71.6603 0.0123636 71.0691 0.176 70.8631 0.436C70.6574 0.696364 69.2153 4.50909 67.6588 8.90909C66.1026 13.3091 64.724 17.0255 64.5952 17.168C64.4669 17.3105 63.1466 13.956 61.6616 9.71345C60.1765 5.47091 58.7384 1.55018 58.4656 1C58.1345 0.332727 57.6841 0 57.1118 0C56.6399 0 56.0706 0.22 55.8467 0.489091ZM33.6824 0.741455C32.8509 0.905818 31.3738 1.44618 30.4001 1.94327C29.4263 2.44 28.0222 3.47418 27.2796 4.24145C26.5375 5.00873 25.5586 6.45455 25.1045 7.45455C24.4554 8.884 24.2785 9.93345 24.277 12.3636C24.2756 14.9993 24.4302 15.7924 25.3263 17.7484C25.994 19.2051 26.9685 20.5611 27.997 21.4636C28.8876 22.2455 30.543 23.2313 31.6758 23.6545C33.0766 24.1778 33.9104 24.3145 34.2824 24.0815C34.5832 23.8931 34.8294 23.2822 34.8294 22.7244C34.8294 21.8731 34.6026 21.6313 33.4227 21.224C32.6488 20.9567 31.4431 20.3855 30.7436 19.9542C30.0437 19.5233 28.9948 18.5142 28.412 17.7124C27.8296 16.9105 27.3529 15.9029 27.3529 15.4735C27.3529 14.8655 29.0878 13.5036 35.1861 9.32436C39.4944 6.372 43.1057 3.81709 43.2107 3.64727C43.3161 3.47745 43.3103 3.09855 43.1972 2.80582C43.0845 2.51273 42.3865 2.00582 41.6461 1.67964C40.9058 1.35309 39.416 0.923636 38.3357 0.724727C37.2551 0.526182 36.1062 0.381455 35.7828 0.403636C35.4589 0.425455 34.5139 0.577455 33.6824 0.741455ZM95.3279 0.688C94.7024 0.848 93.4376 1.34291 92.5175 1.78691C91.597 2.23127 90.3205 3.18909 89.6812 3.91527C89.0415 4.64145 88.1731 5.98036 87.7512 6.89055C87.16 8.16655 86.9856 9.25345 86.99 11.6364C86.9948 14.3258 87.1417 15.0367 88.1206 17.108C88.7391 18.4175 89.7508 20.0629 90.3683 20.764C90.9857 21.4651 92.364 22.5211 93.4307 23.1102C95.1033 24.0342 95.7477 24.18 98.1059 24.1705C100.163 24.1622 101.312 23.9495 102.743 23.3131C103.797 22.8444 105.354 21.7102 106.238 20.7684C107.318 19.6175 108.086 18.3171 108.622 16.7367C109.056 15.4538 109.412 13.9375 109.412 13.3673C109.412 12.7971 108.984 11.0142 108.462 9.40509C107.817 7.41855 107.02 5.87782 105.979 4.60436C105.029 3.44255 103.686 2.34145 102.447 1.70982C101.222 1.08545 99.6767 0.633455 98.4564 0.543636C97.3608 0.462545 95.953 0.527636 95.3279 0.688ZM0.243259 1.69709C0.109412 1.83018 0 6.9 0 12.9629V23.9862L0.916506 24.2156C1.44205 24.3469 2.06424 24.2535 2.37533 23.996C2.82574 23.6233 2.91765 22.1662 2.91765 15.3935V7.23964L3.83306 6.32727C4.33635 5.82509 5.31559 5.17818 6.00926 4.88909C6.70329 4.6 7.72739 4.36109 8.28539 4.35818C8.84339 4.35491 9.51846 4.21455 9.78506 4.04582C10.0608 3.87164 10.2183 3.28509 10.1498 2.68764C10.0382 1.712 9.90541 1.62836 8.30326 1.52582C7.15152 1.452 6.01291 1.66364 4.88305 2.16218C3.95159 2.57309 3.14741 2.90909 3.09635 2.90909C3.04493 2.90909 2.91692 2.58182 2.81188 2.18182C2.67621 1.66364 2.31442 1.45455 1.55365 1.45455C0.966471 1.45455 0.376741 1.56364 0.243259 1.69709ZM37.3557 3.59818C37.9305 3.82291 37.0764 4.54836 32.6594 7.58691C29.6896 9.62982 27.2034 11.2447 27.1341 11.1756C27.0648 11.1065 27.1837 10.4047 27.3985 9.616C27.6133 8.82727 28.1969 7.64364 28.6947 6.98582C29.1929 6.328 30.2162 5.38291 30.9694 4.88618C31.7228 4.38909 33.0635 3.84073 33.949 3.66727C34.8345 3.49418 35.805 3.34582 36.1059 3.33818C36.4068 3.33018 36.9691 3.44727 37.3557 3.59818ZM102.01 4.588C103.383 5.43309 104.016 6.16982 104.955 8.01418C105.613 9.30618 106.246 11.1818 106.362 12.1818C106.478 13.1818 106.381 14.7102 106.146 15.5785C105.896 16.5036 105.105 17.8204 104.237 18.7604C103.421 19.6422 102.634 20.3636 102.486 20.3636C102.339 20.3636 102.295 19.9658 102.388 19.4796C102.482 18.9935 102.29 17.8073 101.963 16.8433C101.636 15.8796 100.553 13.9455 99.5549 12.5455C98.5574 11.1455 97.2503 9.18182 96.6503 8.18182C96.0504 7.18182 95.5584 6.088 95.5562 5.75091C95.5544 5.41382 95.7207 4.69855 95.9257 4.16109C96.2791 3.23418 96.4002 3.19236 98.2798 3.348C99.6282 3.45927 100.821 3.85564 102.01 4.588ZM93.3669 5.18182C93.368 5.432 93.5321 6.22218 93.7312 6.93782C93.9307 7.65345 95.3998 10.2582 96.9961 12.7255C98.592 15.1931 99.9976 17.6636 100.119 18.2156C100.255 18.8327 100.108 19.6665 99.7387 20.3796C99.1544 21.5065 99.0807 21.5349 97.15 21.3753C95.7192 21.2567 94.732 20.9095 93.6255 20.1356C92.5591 19.3895 91.7115 18.3244 90.8577 16.6564C89.8489 14.6865 89.625 13.836 89.6163 11.9444C89.6104 10.6745 89.8519 9.064 90.1535 8.36364C90.4547 7.66364 91.1509 6.55927 91.7006 5.90909C92.2505 5.25891 92.8497 4.72727 93.0325 4.72727C93.2152 4.72727 93.3658 4.932 93.3669 5.18182ZM1.28522 30.6364C1.43694 31.0862 1.63498 32.3956 1.72469 33.5455C1.81478 34.6953 2.02339 35.6364 2.18824 35.6364C2.35308 35.6364 2.56169 34.6953 2.65178 33.5455C2.74149 32.3956 2.93953 31.0862 3.09125 30.6364C3.26813 30.112 3.22108 29.8182 2.96032 29.8182C2.73602 29.8182 2.55294 30.0636 2.55294 30.3636C2.55294 30.6636 2.38882 30.9091 2.18824 30.9091C1.98765 30.9091 1.82353 30.6636 1.82353 30.3636C1.82353 30.0636 1.64045 29.8182 1.41615 29.8182C1.15539 29.8182 1.10834 30.112 1.28522 30.6364ZM57.9882 32.7487C57.9882 34.6098 58.1214 35.5971 58.3529 35.4545C58.5535 35.3309 58.7176 34.0124 58.7176 32.524C58.7176 30.9625 58.5634 29.8182 58.3529 29.8182C58.14 29.8182 57.9882 31.0375 57.9882 32.7487ZM61.5722 32.7305C61.643 34.4702 61.8322 35.5578 62.0408 35.4291C62.2334 35.3105 62.3625 33.9996 62.3282 32.516C62.2885 30.8138 62.1156 29.8178 61.8592 29.8175C61.5846 29.8167 61.4916 30.76 61.5722 32.7305ZM75.4941 30.1393C75.4941 30.316 75.1659 30.5462 74.7647 30.6509C74.1378 30.8142 74.0353 31.1469 74.0353 33.0178C74.0353 34.6676 74.175 35.2484 74.6123 35.4156C74.9296 35.5371 75.4219 35.6364 75.7064 35.6364C76.1097 35.6364 76.2235 34.996 76.2235 32.7273C76.2235 31.0302 76.0714 29.8182 75.8588 29.8182C75.6582 29.8182 75.4941 29.9629 75.4941 30.1393ZM92.8786 30.0607C92.7447 30.1938 92.6353 31.4116 92.6353 32.7665C92.6353 34.1215 92.7994 35.3309 93 35.4545C93.2276 35.5949 93.3647 34.8673 93.3647 33.5204C93.3647 32.0451 93.5379 31.2185 93.9118 30.9091C94.2126 30.66 94.4588 30.3127 94.4588 30.1375C94.4588 29.9618 94.1579 29.8182 93.7903 29.8182C93.4223 29.8182 93.012 29.9273 92.8786 30.0607ZM97.3105 30.2727C97.2313 30.5229 97.228 31.8327 97.3028 33.184C97.3779 34.5425 97.588 35.5491 97.7725 35.4353C97.956 35.3222 98.1059 34.2524 98.1059 33.0582C98.1059 31.4669 98.2514 30.8305 98.6508 30.6778C98.9505 30.5629 99.1052 30.3229 98.9939 30.1436C98.8831 29.9647 98.4914 29.8182 98.1234 29.8182C97.7554 29.8182 97.3896 30.0229 97.3105 30.2727ZM5.9954 31.0178C5.88453 31.3058 5.84405 32.4218 5.90568 33.4978C6.00962 35.3127 6.08366 35.4545 6.92941 35.4545C7.80835 35.4545 7.84118 35.3698 7.84118 33.0909C7.84118 30.9153 7.77589 30.7182 7.01913 30.6109C6.55158 30.5447 6.10992 30.7204 5.9954 31.0178ZM10.6509 33C10.7541 35.3469 10.7986 35.4545 11.6706 35.4545C12.5426 35.4545 12.5871 35.3469 12.6903 33C12.7574 31.4662 12.6549 30.5455 12.4168 30.5455C12.1936 30.5455 12.0353 31.4516 12.0353 32.7273C12.0353 33.9393 11.8734 34.9091 11.6706 34.9091C11.4678 34.9091 11.3059 33.9393 11.3059 32.7273C11.3059 31.4516 11.1476 30.5455 10.9244 30.5455C10.6862 30.5455 10.5838 31.4662 10.6509 33ZM15.3176 32.8876C15.3176 34.176 15.4818 35.3309 15.6824 35.4545C15.9096 35.5945 16.0471 34.8724 16.0471 33.5367C16.0471 32.3582 16.1539 31.2873 16.2845 31.1571C16.415 31.0269 16.7382 31.2044 17.0022 31.5513C17.445 32.1324 17.4836 32.1178 17.4942 31.3636C17.5037 30.6945 17.3068 30.5455 16.4118 30.5455H15.3176V32.8876ZM24.4353 33.4305C24.4353 35.1436 24.587 36.3636 24.8 36.3636C25.0006 36.3636 25.1647 36.2189 25.1647 36.0425C25.1647 35.8658 25.501 35.6335 25.9124 35.5262C26.5823 35.3516 26.6483 35.092 26.5506 33.0295C26.4456 30.8193 26.4011 30.7225 25.4382 30.6124L24.4353 30.4971V33.4305ZM29.6156 32.9964C29.7035 34.9916 29.8424 35.4695 30.3629 35.5687C30.7144 35.6353 31.1039 35.4255 31.2287 35.1022C31.353 34.7785 31.3436 34.4033 31.2075 34.2676C31.0715 34.132 30.8078 34.2618 30.6211 34.556C30.3764 34.9418 30.2801 34.7105 30.2761 33.7273C30.272 32.7553 30.4278 32.3636 30.8176 32.3636C31.1579 32.3636 31.3647 32.0204 31.3647 31.4545C31.3647 30.7229 31.1834 30.5455 30.4362 30.5455C29.5226 30.5455 29.5094 30.5847 29.6156 32.9964ZM34.3498 33.1818C34.4104 35.5535 34.4297 35.6171 34.542 33.8182C34.611 32.7182 34.7492 31.5884 34.8495 31.308C34.9928 30.9065 35.1442 30.9455 35.5574 31.4898C36.065 32.1582 36.0829 32.1542 36.0942 31.3636C36.1033 30.7302 35.8998 30.5455 35.1941 30.5455C34.2991 30.5455 34.2834 30.5942 34.3498 33.1818ZM39.0235 31.4545C39.0235 32.0204 39.2303 32.3636 39.5706 32.3636C39.9528 32.3636 40.1176 32.7476 40.1176 33.6364C40.1176 34.3364 39.9535 34.9091 39.7529 34.9091C39.5524 34.9091 39.3882 34.7356 39.3882 34.524C39.3882 34.3124 39.2084 34.2498 38.9885 34.3851C38.7146 34.5538 38.7631 34.8055 39.1424 35.1836C39.4473 35.4873 39.9554 35.6367 40.2716 35.5156C40.6629 35.3662 40.8471 34.8305 40.8471 33.8425C40.8471 32.7545 40.6611 32.2898 40.1074 31.9945C39.7008 31.7775 39.475 31.4269 39.606 31.2156C39.7639 30.9611 39.9451 30.9945 40.1435 31.3142C40.308 31.58 40.5502 31.6902 40.6815 31.5593C40.8128 31.4284 40.812 31.1465 40.6797 30.9335C40.5476 30.72 40.1209 30.5455 39.7314 30.5455C39.2194 30.5455 39.0235 30.7971 39.0235 31.4545ZM43.6586 30.7724C43.5163 30.9142 43.4 31.9738 43.4 33.1269C43.4 34.9378 43.5043 35.2567 44.1662 35.4662C44.5875 35.5996 45.0886 35.5527 45.2801 35.3618C45.4712 35.1713 45.578 34.0502 45.5168 32.8713C45.4216 31.0338 45.2994 30.712 44.6615 30.6211C44.252 30.5625 43.8008 30.6309 43.6586 30.7724ZM48.1412 32.8636C48.1412 34.1651 48.3053 35.3309 48.5059 35.4545C48.7349 35.5956 48.8706 34.7916 48.8706 33.2942C48.8706 31.9465 49.0292 30.9091 49.2353 30.9091C49.441 30.9091 49.6 31.9393 49.6 33.2727C49.6 34.6749 49.755 35.6364 49.9815 35.6364C50.2196 35.6364 50.3221 34.7156 50.255 33.1818C50.1503 30.8051 50.1153 30.7236 49.1441 30.6124L48.1412 30.4971V32.8636ZM53.1355 30.7778C53.0071 30.9058 52.9943 31.1593 53.107 31.3411C53.223 31.528 53.5355 31.4865 53.8266 31.2458C54.2307 30.9113 54.3412 30.9375 54.3412 31.3676C54.3412 31.6687 54.0129 32.0007 53.6118 32.1055C53.0632 32.2484 52.8824 32.6015 52.8824 33.5295C52.8824 34.2084 53.0793 34.96 53.32 35.2C53.5607 35.44 54.0531 35.6364 54.4141 35.6364C54.9838 35.6364 55.0706 35.2996 55.0706 33.0909C55.0706 30.6665 55.0301 30.5455 54.2197 30.5455C53.7515 30.5455 53.2638 30.6502 53.1355 30.7778ZM65.5282 30.828C65.8538 31.0349 65.8415 31.5931 65.4753 33.1636C65.2105 34.2989 65.0861 35.3196 65.1988 35.432C65.3115 35.5444 65.7047 35.6364 66.0727 35.6364C66.4403 35.6364 66.7412 35.4727 66.7412 35.2727C66.7412 35.0727 66.51 34.9091 66.2273 34.9091C65.7853 34.9091 65.7849 34.6404 66.2229 33C66.503 31.9498 66.7346 30.968 66.7368 30.8182C66.7394 30.6684 66.3721 30.548 65.9206 30.5509C65.4188 30.5545 65.2663 30.6622 65.5282 30.828ZM69.5527 30.7724C69.4105 30.9142 69.2941 31.8829 69.2941 32.9251C69.2941 34.1585 69.4834 34.9767 69.8364 35.2687C70.1348 35.5156 70.6271 35.6229 70.9306 35.5065C71.234 35.3905 71.4824 35.0451 71.4824 34.7385C71.4824 34.4324 71.3182 34.1818 71.1176 34.1818C70.9171 34.1818 70.7529 34.3455 70.7529 34.5455C70.7529 34.7455 70.5888 34.9091 70.3882 34.9091C70.1876 34.9091 70.0235 34.4029 70.0235 33.784C70.0235 32.9553 70.2205 32.6076 70.7719 32.464C71.2829 32.3309 71.4856 32.024 71.4101 31.4982C71.3456 31.0469 70.9915 30.6833 70.5556 30.6211C70.1461 30.5625 69.6949 30.6309 69.5527 30.7724ZM83.4115 30.7724C83.2693 30.9142 83.1529 31.8829 83.1529 32.9251C83.1529 34.1585 83.3422 34.9767 83.6953 35.2687C83.9936 35.5156 84.4859 35.6229 84.7894 35.5065C85.0928 35.3905 85.3412 35.0451 85.3412 34.7385C85.3412 34.4324 85.1771 34.1818 84.9765 34.1818C84.7759 34.1818 84.6118 34.3455 84.6118 34.5455C84.6118 34.7455 84.4476 34.9091 84.2471 34.9091C84.0465 34.9091 83.8824 34.1007 83.8824 33.1124C83.8824 32.124 84.0465 31.2145 84.2471 31.0909C84.4476 30.9673 84.6118 31.1215 84.6118 31.4331C84.6118 31.7447 84.7879 32 85.0031 32C85.2186 32 85.3401 31.7138 85.273 31.3636C85.2062 31.0135 84.8182 30.6796 84.4108 30.6211C84.0034 30.5625 83.5538 30.6309 83.4115 30.7724ZM88.1527 30.7724C88.0105 30.9142 87.8941 31.8829 87.8941 32.9251C87.8941 34.1585 88.0834 34.9767 88.4364 35.2687C88.7348 35.5156 89.2351 35.6196 89.5481 35.5C89.9974 35.328 90.0944 34.8018 90.0087 33.0047C89.9146 31.0316 89.8004 30.7131 89.1556 30.6211C88.7461 30.5625 88.2949 30.6309 88.1527 30.7724ZM101.827 32.9964C101.915 34.9916 102.054 35.4695 102.575 35.5687C102.926 35.6353 103.316 35.4255 103.44 35.1022C103.565 34.7785 103.555 34.4033 103.419 34.2676C103.283 34.132 103.02 34.2618 102.833 34.556C102.588 34.9418 102.492 34.7105 102.488 33.7273C102.484 32.7553 102.64 32.3636 103.029 32.3636C103.37 32.3636 103.576 32.0204 103.576 31.4545C103.576 30.7229 103.395 30.5455 102.648 30.5455C101.734 30.5455 101.721 30.5847 101.827 32.9964ZM106.569 32.9964C106.656 34.9916 106.795 35.4695 107.316 35.5687C107.667 35.6353 108.057 35.4255 108.182 35.1022C108.306 34.7785 108.296 34.4033 108.16 34.2676C108.024 34.132 107.761 34.2618 107.574 34.556C107.329 34.9418 107.233 34.7105 107.229 33.7273C107.225 32.7553 107.381 32.3636 107.771 32.3636C108.111 32.3636 108.318 32.0204 108.318 31.4545C108.318 30.7229 108.136 30.5455 107.389 30.5455C106.476 30.5455 106.462 30.5847 106.569 32.9964ZM7.29412 32.9091C7.29412 34.0091 7.13 34.9091 6.92941 34.9091C6.72882 34.9091 6.56471 34.0091 6.56471 32.9091C6.56471 31.8091 6.72882 30.9091 6.92941 30.9091C7.13 30.9091 7.29412 31.8091 7.29412 32.9091ZM25.8941 32.9091C25.8941 34.0091 25.73 34.9091 25.5294 34.9091C25.3288 34.9091 25.1647 34.0091 25.1647 32.9091C25.1647 31.8091 25.3288 30.9091 25.5294 30.9091C25.73 30.9091 25.8941 31.8091 25.8941 32.9091ZM30.5197 31.7047C30.4033 31.9945 30.3169 31.9084 30.2994 31.4847C30.2837 31.1015 30.3698 30.8869 30.4909 31.0076C30.612 31.1284 30.6251 31.4422 30.5197 31.7047ZM44.8588 32.9091C44.8588 34.0091 44.6947 34.9091 44.4941 34.9091C44.2935 34.9091 44.1294 34.0091 44.1294 32.9091C44.1294 31.8091 44.2935 30.9091 44.4941 30.9091C44.6947 30.9091 44.8588 31.8091 44.8588 32.9091ZM70.6085 31.9015C70.4874 32.0222 70.2898 32.0229 70.1694 31.9029C70.0491 31.7829 70.079 31.4775 70.2362 31.224C70.4659 30.8531 70.552 30.8531 70.6753 31.2225C70.7599 31.4753 70.7296 31.7807 70.6085 31.9015ZM75.4941 32.9091C75.4941 34.0091 75.33 34.9091 75.1294 34.9091C74.9288 34.9091 74.7647 34.0091 74.7647 32.9091C74.7647 31.8091 74.9288 30.9091 75.1294 30.9091C75.33 30.9091 75.4941 31.8091 75.4941 32.9091ZM89.3529 32.9091C89.3529 34.0091 89.1888 34.9091 88.9882 34.9091C88.7876 34.9091 88.6235 34.1182 88.6235 33.1516C88.6235 32.1847 88.7329 31.2847 88.8668 31.1516C89.0003 31.0182 89.1644 30.9091 89.2315 30.9091C89.2982 30.9091 89.3529 31.8091 89.3529 32.9091ZM102.731 31.7047C102.615 31.9945 102.529 31.9084 102.511 31.4847C102.495 31.1015 102.582 30.8869 102.703 31.0076C102.824 31.1284 102.837 31.4422 102.731 31.7047ZM107.473 31.7047C107.356 31.9945 107.27 31.9084 107.252 31.4847C107.237 31.1015 107.323 30.8869 107.444 31.0076C107.565 31.1284 107.578 31.4422 107.473 31.7047ZM54.3412 33.6364C54.3412 34.3364 54.1771 34.9091 53.9765 34.9091C53.7759 34.9091 53.6118 34.4455 53.6118 33.8789C53.6118 33.312 53.7212 32.7393 53.855 32.6062C53.9885 32.4727 54.1526 32.3636 54.2197 32.3636C54.2865 32.3636 54.3412 32.9364 54.3412 33.6364Z" fill="black"/>
</svg>
